<svg xmlns="http://www.w3.org/2000/svg">
  <!-- logo-mobile start -->
  <symbol id="logo-mobile" fill="none" viewBox="0 0 33 38">
    <g clip-path="url(#a)">
      <path
        d="M6.01 20.93v-2.28c6.62-.93 13.3-1.37 19.98-1.34 0 .6 0 1.22-.06 1.84a24.9 24.9 0 0 1 5.94-1.84 16.77 16.77 0 0 0-6.77-8.29 16.25 16.25 0 0 0-19.92 2.08 16.95 16.95 0 0 0-5 9.5l5.83.33Zm20.97 3.55c-1.15 1.3-1.38 1.21-1.38 3.49v9.27a16.7 16.7 0 0 0 5.43-6.05 17.08 17.08 0 0 0 1.97-7.95 17.3 17.3 0 0 0-.32-3.13 32.86 32.86 0 0 0-5.7 4.37Zm-20.68 1.51s-3.75-1.46-5.14-1.85a8.33 8.33 0 0 0-1.16-.29c.1 2.92.96 5.76 2.46 8.24a16.63 16.63 0 0 0 6.14 5.91l-2.3-12.01Z"
        fill="#FDC305"
      />
      <path
        d="M26.04 17.3a92.51 92.51 0 0 0-1.39-16.64s-.14-1.3-.88-.25c-.58 1.27-.98 2.6-1.19 3.99a68.3 68.3 0 0 0-12.65.34c-.78-2.72-2.16-3.98-2.82-3.73-.66.25-.71 3.34-.71 3.34l-.33 14.25a139.1 139.1 0 0 1 19.97-1.3Z"
        fill="#F06351"
      />
      <path
        d="M12.3 14.15c0-.1.98.68 1.39.92.4.25.6.43.6.6 0 .17-.27.34-.62.34-.36 0-.9-.12-1-.27h1.23c-.6-.45-1.15-1-1.6-1.6Zm7.4.11-1.08 1.34c0 .06-.17.35.18.3.4-.06.81-.16 1.2-.29.11 0 .08-.2-.1-.17-.18.02-.69.05-1 .11l.84-1.27s.07-.13-.04-.02Zm-3.11 6.15c.46-.2.84-.56 1.08-1.01.28-.66 0-.92-.44-1.01-.6-.11-1.2.01-1.72.34-.39.37-.34.73-.05 1.01.35.27.73.5 1.13.67Z"
        fill="#000"
      />
      <path
        d="M16.2 21.67a1.7 1.7 0 0 1-1.45.99 2.1 2.1 0 0 1-1.46-.43c-.2-.12-.37-.27-.52-.45-.1-.1-.22-.2-.36-.26 0 0 .74 4.14 2.54 4.8 1.8.66 2.12-.76 2.18-1.14a5.76 5.76 0 0 0-.8-3.27c-.03-.3-.04-.1-.14-.24Z"
        fill="#F06351"
      />
      <path
        d="M14.57 22.82a3.36 3.36 0 0 1-2.35-1.53.14.14 0 0 1 .09-.13.14.14 0 0 1 .15.03c.5.7 1.25 1.17 2.09 1.31a2.04 2.04 0 0 0 1.61-1l.14-.2.1.21s.37.77 1 .8c.62.05 1.03-.4 1.59-1.28a.14.14 0 0 1 .2 0c.03.02.05.05.06.09 0 .03 0 .07-.02.1-.63 1.02-1.25 1.46-1.86 1.42a1.52 1.52 0 0 1-1.1-.77 2.25 2.25 0 0 1-1.7.95Z"
        fill="#000"
      />
      <path
        d="M25.99 19.12a58.7 58.7 0 0 0-5.02 5.24 31.58 31.58 0 0 1-5.24 4.94c-.22-.53-1.6-1.52-1.6-1.52s-3.1-2.17-5.14-3.86a34.1 34.1 0 0 1-3.1-3.04l-1.98-.1a22.39 22.39 0 0 0 11.89 8.88c.85-.14 3.24-1.87 5.02-3.29a58.15 58.15 0 0 0 5.88-5.95c.5-.6.88-1.28 1.13-2.02-1.09.4-1.84.72-1.84.72Z"
        fill="#F06351"
      />
    </g>
    <defs>
      <clipPath id="a">
        <path fill="#fff" d="M0 0h33v38h-33z" />
      </clipPath>
    </defs>
  </symbol>
  <!-- logo-mobile end -->
  <!-- logo-tablet start -->
  <symbol id="logo-tablet" fill="none" viewBox="0 0 174 50">
    <g clip-path="url(#a)">
      <path
        d="M51.2 19.05a22.3 22.3 0 0 0-6.88-9.13 21.5 21.5 0 0 0-21.62-2.95 21.95 21.95 0 0 0-9 6.97 22.76 22.76 0 0 0-3.04 22.04 22.31 22.31 0 0 0 6.78 9.22c3 2.42 6.57 4 10.36 4.56-.5-1.82-1-3.84-1.44-5.98 1.29.86 2.65 1.6 4.07 2.23 0 0 .1 1.88.24 3.99a21.7 21.7 0 0 0 4.55-.41 1.9 1.9 0 0 1 0-.67c.25-1.63.94-4.57 1.07-6.46.99-.94 1.83-2.03 2.48-3.24l-.05.39c-.47 3.71-1.45 7.68-2.05 8.78-.2.37-.43.7-.71 1 3.1-.74 6-2.16 8.5-4.15 2.5-2 4.55-4.53 6-7.42a22.73 22.73 0 0 0 .75-18.77Zm-1.25 3.3c-.38.38-1.15.64-1.28-.5a30.8 30.8 0 0 1-.16-1.93s-1.65-2.99-2.27-3.02c-.62-.04-4.99 3.02-6.14 4.36-1 1.12-1.2 1.05-1.2 3.03 0 1.49.19 7.12.09 11.43l-6.97 1.9a53.8 53.8 0 0 1-6.67 1.5l-.86-5.09h-.12l-2.2-11.49s-3.25-1.26-4.45-1.6a3.16 3.16 0 0 0-3.42.55 4.42 4.42 0 0 0-1.48 3.36c.18.4.32.83.4 1.27.05.42-1.02.37-1.7.37-.69 0-.79-1.25-.25-2.73a19.9 19.9 0 0 1 1.56-3.26c.46-.93 1.06-1.78 1.77-2.52 0 0 .12-.3 1.07-.21.95.09 6.22.37 6.22.37l.05-1.98c5.73-.8 11.51-1.2 17.3-1.17v1.6a18.95 18.95 0 0 1 6.97-1.74.76.76 0 0 1 .65.34c.3.37 2.06 2.61 2.27 2.94.57.83 1.1 1.7 1.57 2.61a5.5 5.5 0 0 1-.75 1.6v.02Z"
        fill="#FDC305"
      />
      <path
        d="m48.28 17.02.86 1.12c.57.84 1.1 1.72 1.56 2.62a5.5 5.5 0 0 1-.73 1.55c-.38.38-1.16.63-1.28-.5-.13-1.14-.18-1.89-.18-1.89s-1.65-2.99-2.27-3.02c-.62-.04-4.99 3.02-6.14 4.36-1 1.12-1.2 1.05-1.2 3.03 0 1.3.15 5.8.11 9.8 1.55.17 3.83.6 4.51 1.63 0 0-.25-6.26 6.68-2.98 0 0 .24-8.54 9.8-6.35a37.5 37.5 0 0 0-11.72-9.37Zm-9-2.02c.03-4.84-.37-9.67-1.2-14.43 0 0-.13-1.13-.74-.2-.51 1.1-.86 2.27-1.03 3.48a59.42 59.42 0 0 0-10.96.3c-.7-2.4-1.9-3.49-2.47-3.2-.58.29-.65 2.86-.65 2.86l-.28 12.35a121 121 0 0 1 17.33-1.17Z"
        fill="#F06351"
      />
      <path
        d="M38.78 39.22c.11-.93.17-2.17.2-3.54l-6.96 1.9a53.8 53.8 0 0 1-6.67 1.54l.95 4.36c0 .1 0 .2.06.29 1.3.85 2.65 1.6 4.07 2.22 2.07-1 4.04-2.21 5.88-3.6v.05c.98-.94 1.82-2.02 2.47-3.22Z"
        fill="#E55645"
      />
      <path
        d="M27.37 12.26c-.05-.08.85.6 1.2.8.35.22.52.37.52.52 0 .15-.22.3-.53.3-.3 0-.78-.1-.85-.23-.07-.12.51 0 .8 0h.25c-.53-.4-1-.86-1.4-1.39Zm6.41.1s-.86 1.12-.93 1.17c-.08.05-.15.3.16.25.35-.05.7-.13 1.04-.24.1-.06.06-.18-.1-.16-.16.02-.58.04-.85.1l.72-1.11s.03-.1-.04-.01Zm-2.68 5.33c.4-.18.72-.49.93-.87.24-.58 0-.8-.38-.88-.52-.1-1.05.01-1.5.3-.33.32-.29.64 0 .87.3.24.6.43.94.58Z"
        fill="#000"
      />
      <path
        d="M30.79 18.79a1.46 1.46 0 0 1-1.25.86c-.47.04-.94-.1-1.32-.39a1.7 1.7 0 0 1-.45-.4.85.85 0 0 0-.31-.21s.64 3.59 2.2 4.16c1.55.58 1.84-.66 1.89-1 .05-.99-.2-1.97-.7-2.82 0-.26-.02-.09-.06-.2Z"
        fill="#F06351"
      />
      <path
        d="M29.33 19.78a2.96 2.96 0 0 1-2-1.24.13.13 0 0 1 0-.18.12.12 0 0 1 .13-.03l.03.03a2.78 2.78 0 0 0 1.8 1.14 1.78 1.78 0 0 0 1.41-.87l.12-.16.09.19s.32.66.85.7c.53.03.9-.37 1.4-1.13a.12.12 0 0 1 .17-.03c.02.01.04.04.05.08 0 .03 0 .06-.02.09-.57.86-1.1 1.27-1.62 1.23a1.3 1.3 0 0 1-.95-.64 1.95 1.95 0 0 1-1.46.82Z"
        fill="#000"
      />
      <path
        d="M31 31.53a3.25 3.25 0 0 0 3.22-3.27 3.25 3.25 0 0 0-3.21-3.28 3.24 3.24 0 0 0-3.2 3.28c0 1.8 1.43 3.27 3.2 3.27Z"
        fill="#FDC305"
      />
      <path
        d="m35.26 25.6-2.68 1.14.99-4.91-6.42 8.51 2.68-1.14-.98 4.92 6.4-8.53Zm-6.32 3.34 3.56-4.72-.7 3.49 1.71-.72-3.58 4.73.7-3.5-1.7.72Zm-1.2-1.29c.53 0 .96-.43.96-.97a.97.97 0 0 0-.96-.98.97.97 0 0 0-.96.98c0 .54.43.97.96.97Zm5.58 3.55c.37 0 .67-.31.67-.7 0-.37-.3-.68-.67-.68-.38 0-.68.3-.68.69 0 .38.3.69.68.69Zm.82-1.9a.3.3 0 0 0 .3-.3.3.3 0 0 0-.3-.3.3.3 0 0 0-.3.3c0 .17.13.3.3.3Z"
        fill="#111"
      />
      <path
        d="M39.24 16.57c-1.55 1.42-3 2.94-4.36 4.55a27.48 27.48 0 0 1-4.54 4.27c-.19-.46-1.4-1.32-1.4-1.32s-2.68-1.88-4.44-3.35a27.62 27.62 0 0 1-2.68-2.62l-1.71-.1a19.39 19.39 0 0 0 10.26 7.72c.73-.13 2.8-1.64 4.35-2.87a49.8 49.8 0 0 0 5.13-5.15c.43-.52.76-1.1.98-1.75-.98.34-1.6.62-1.6.62Zm-17.06 5.97s-3.26-1.26-4.46-1.6a3.16 3.16 0 0 0-3.42.55 4.42 4.42 0 0 0-1.48 3.36c.18.4.32.83.41 1.27.04.42-1.03.37-1.71.37-.68 0-.79-1.25-.25-2.73a19.9 19.9 0 0 1 1.56-3.26c-4.66 2.48-12.83 8.2-12.83 8.2a38.4 38.4 0 0 1 7 .21c4.5.46 4.28 4.07 4.28 4.07 1.58-.44 3.19-.76 4.81-.96 1.82-.13 1.95 1.85 1.95 1.85l.45 3.36c.69-.76 1.45-1.45 2.27-2.06a5.11 5.11 0 0 1 3.74-1.13l-2.32-11.5Z"
        fill="#F06351"
      />
      <path
        d="M74.22 32.47a6.8 6.8 0 0 1-1.2-4.34v-6.26a6.9 6.9 0 0 1 1.18-4.38c.8-1 2.15-1.5 4.08-1.49 1.92 0 3.22.44 3.9 1.31a5.51 5.51 0 0 1 1.14 3.75v1.47h-3.55v-1.6c0-.41-.04-.83-.11-1.24-.05-.3-.19-.58-.4-.8a1.35 1.35 0 0 0-1-.3 1.28 1.28 0 0 0-1.28.62 4.46 4.46 0 0 0-.3 1.84v7.95a3.9 3.9 0 0 0 .34 1.84 1.3 1.3 0 0 0 1.24.61c.25.03.5 0 .71-.12.22-.1.39-.28.5-.5.2-.59.3-1.2.26-1.83v-1.67h3.55v1.45a5.94 5.94 0 0 1-1.05 3.85c-.76.92-2.06 1.37-3.91 1.37s-3.3-.5-4.1-1.53Zm13.94-16.23h4.06l3.43 17.55h-3.38l-.6-3.88h-2.85l-.69 3.86h-3.43l3.46-17.53Zm3.13 11.47-1.08-7.06-1.08 7.06h2.16Zm6.99-8.83h-2.77v-2.64h9.19v2.64h-2.75v14.89h-3.67v-14.89Z"
        fill="#111"
      />
      <path
        d="M111.91 16.24h6.98v1.82h-4.46v5.8h3.61v1.73h-3.61v6.42h4.5v1.76h-7.02v-17.53Zm9.04 0h1.72l5.14 11.64v-11.64h2.1v17.55h-1.6l-5.15-11.97v11.95h-2.13l-.08-17.53Zm11.73 0h6.96v1.82h-4.46v5.8h3.66v1.73h-3.62v6.42h4.47v1.76h-7.01v-17.53Zm9.02 0h3.63a6.12 6.12 0 0 1 4 1.1c.86.72 1.28 1.91 1.28 3.56 0 2.23-.74 3.59-2.22 4.08l2.57 8.79h-2.43l-2.36-8.23h-1.95v8.23h-2.51v-17.53Zm3.44 7.52c.83.08 1.65-.15 2.32-.63a2.96 2.96 0 0 0 .7-2.27 4.77 4.77 0 0 0-.25-1.67 1.58 1.58 0 0 0-.86-.9 4.18 4.18 0 0 0-1.76-.3h-1.1v5.8l.95-.03Zm8.86 8.71a7.57 7.57 0 0 1-1.1-4.47v-5.85c-.03-1.13.12-2.26.43-3.34.25-.82.77-1.53 1.5-2.02.86-.5 1.86-.75 2.87-.7a4.62 4.62 0 0 1 3.59 1.24 5.74 5.74 0 0 1 1.1 3.87v.65h-2.36v-.54c.01-.65-.04-1.3-.16-1.94a1.66 1.66 0 0 0-.65-1.03 2.63 2.63 0 0 0-1.47-.34 2.2 2.2 0 0 0-1.56.47c-.35.32-.58.76-.66 1.23-.1.69-.15 1.39-.14 2.08v6.51c-.07 1 .1 1.98.5 2.9a2.42 2.42 0 0 0 1.94.87 2.48 2.48 0 0 0 1.9-.95c.41-.97.6-2 .52-3.05v-1.24h-2.28v-1.73h4.55v8.68h-1.56l-.25-2.02c-.2.67-.62 1.26-1.2 1.66-.58.4-1.28.6-2 .57a4.09 4.09 0 0 1-3.52-1.5Zm13.73-4.89-3.88-11.34h2.33l2.75 8.46 2.71-8.46h2.36l-3.86 11.34v6.19h-2.4v-6.19Z"
        fill="#444"
      />
    </g>
    <defs>
      <clipPath id="a">
        <path fill="#fff" d="M0 0h174v50h-174z" />
      </clipPath>
    </defs>
  </symbol>
  <!-- logo-tablet end -->
  <!-- logo-desktop start -->
  <symbol id="logo-desktop" fill="none" viewBox="0 0 202 59">
    <g clip-path="url(#a)">
      <path
        d="M59.74 23.8a25.42 25.42 0 0 0-8.03-10.37 25.63 25.63 0 0 0-35.72 4.57 25.33 25.33 0 0 0 4.35 35.54 25.63 25.63 0 0 0 12.1 5.18c-.58-2.07-1.17-4.36-1.69-6.8 1.5.98 3.1 1.83 4.75 2.54 0 0 .12 2.14.28 4.53 1.78.03 3.56-.13 5.32-.47a2.1 2.1 0 0 1 0-.75c.29-1.85 1.08-5.2 1.24-7.35a15.1 15.1 0 0 0 2.9-3.68l-.06.44c-.55 4.22-1.7 8.74-2.4 9.98-.22.42-.5.8-.83 1.15a25.65 25.65 0 0 0 16.93-13.16 25.32 25.32 0 0 0 .86-21.34Zm-1.46 3.77c-.44.42-1.35.71-1.5-.58-.15-1.29-.19-2.2-.19-2.2s-1.93-3.4-2.64-3.43c-.72-.04-5.82 3.44-7.17 4.96-1.16 1.28-1.4 1.19-1.4 3.44 0 1.7.23 8.1.1 13l-8.13 2.15c-2.55.73-5.15 1.3-7.78 1.71l-1-5.78h-.14l-2.56-13.07s-3.8-1.42-5.2-1.81a3.77 3.77 0 0 0-3.99.62 5.03 5.03 0 0 0-1.72 3.82c.2.46.37.95.47 1.44.05.48-1.2.43-2 .43-.79 0-.9-1.43-.28-3.1a22.1 22.1 0 0 1 1.82-3.72 11.78 11.78 0 0 1 2.06-2.86s.14-.34 1.25-.24c1.1.1 7.26.42 7.26.42l.05-2.25c6.7-.92 13.44-1.36 20.2-1.33v1.82a22.58 22.58 0 0 1 8.12-1.98.91.91 0 0 1 .77.38c.33.43 2.4 2.98 2.64 3.34a27.6 27.6 0 0 1 1.82 2.98 6.17 6.17 0 0 1-.86 1.83Z"
        fill="#FDC305"
      />
      <path
        d="m56.33 21.5 1 1.27a27.6 27.6 0 0 1 1.82 2.98 6.17 6.17 0 0 1-.85 1.77c-.44.42-1.35.71-1.5-.58-.15-1.29-.2-2.14-.2-2.14s-1.94-3.4-2.65-3.44c-.72-.04-5.82 3.44-7.17 4.96-1.16 1.28-1.4 1.19-1.4 3.44 0 1.49.18 6.6.14 11.14 1.8.2 4.46.7 5.25 1.86 0 0-.29-7.12 7.8-3.39 0 0 .28-9.71 11.43-7.22a43.58 43.58 0 0 0-13.67-10.65Zm-10.5-2.3c.04-5.5-.43-11-1.4-16.4 0 0-.15-1.3-.87-.24-.6 1.26-1 2.6-1.2 3.97a71.13 71.13 0 0 0-12.79.33c-.82-2.72-2.21-3.96-2.88-3.64-.67.33-.75 3.26-.75 3.26l-.33 14.04c6.7-.92 13.45-1.36 20.22-1.33Z"
        fill="#F06351"
      />
      <path
        d="M45.25 46.74c.13-1.06.2-2.47.24-4.03l-8.14 2.16a64.15 64.15 0 0 1-7.78 1.75l1.11 4.96c0 .11 0 .22.07.33 1.5.97 3.1 1.82 4.75 2.53a42.36 42.36 0 0 0 6.86-4.1v.06a15.11 15.11 0 0 0 2.89-3.66Z"
        fill="#E55645"
      />
      <path
        d="M31.93 16.09c-.05-.1 1 .67 1.4.91.41.24.61.42.61.59 0 .17-.26.33-.62.33s-.91-.11-1-.25c-.07-.14.6 0 .94 0h.3a8.04 8.04 0 0 1-1.63-1.58Zm7.48.11s-1 1.27-1.09 1.33c-.09.06-.17.33.2.29.4-.07.81-.16 1.2-.28.12-.06.08-.2-.11-.18-.19.02-.68.05-1 .1l.85-1.25s.03-.12-.05-.01Zm-3.13 6.06c.46-.2.84-.55 1.08-1 .28-.65 0-.9-.43-.99-.6-.1-1.23.02-1.75.34-.39.37-.34.73 0 1 .34.26.7.48 1.1.65Z"
        fill="#000"
      />
      <path
        d="M35.92 23.5c-.12.23-.27.44-.46.6-.29.23-.63.36-1 .38-.55.05-1.1-.1-1.54-.44a2 2 0 0 1-.52-.44 1 1 0 0 0-.36-.25s.74 4.08 2.56 4.73c1.82.66 2.16-.75 2.2-1.13a5.56 5.56 0 0 0-.81-3.21c0-.3-.02-.1-.07-.23Z"
        fill="#F06351"
      />
      <path
        d="M34.22 24.64a3.5 3.5 0 0 1-2.34-1.42.15.15 0 0 1 0-.2.14.14 0 0 1 .1-.04.14.14 0 0 1 .1.04 3.2 3.2 0 0 0 2.1 1.3 2.11 2.11 0 0 0 1.64-.99l.14-.19.1.22s.38.75 1 .8c.61.03 1.05-.42 1.62-1.29a.14.14 0 0 1 .24.16c-.66.97-1.3 1.44-1.89 1.4a1.55 1.55 0 0 1-1.11-.72 2.25 2.25 0 0 1-1.7.93Z"
        fill="#000"
      />
      <path
        d="M36.18 38a3.73 3.73 0 0 0 3.74-3.73 3.73 3.73 0 0 0-3.74-3.72 3.73 3.73 0 0 0-3.74 3.72 3.73 3.73 0 0 0 3.74 3.72Z"
        fill="#FDC305"
      />
      <path
        d="m41.14 31.25-3.13 1.3 1.15-5.59-7.48 9.68 3.12-1.3-1.15 5.6 7.49-9.7Zm-7.38 3.8 4.15-5.37-.8 3.97 1.99-.82-4.18 5.38.8-3.97-1.96.8Zm-1.39-1.46c.61 0 1.11-.5 1.11-1.11a1.11 1.11 0 1 0-2.23 0c0 .6.5 1.1 1.12 1.1Zm6.5 4.02c.44 0 .79-.35.79-.78a.79.79 0 0 0-.79-.78.79.79 0 0 0-.79.78c0 .43.36.78.8.78Zm.96-2.15a.35.35 0 1 0 0-.69c-.2 0-.35.15-.35.34 0 .2.16.35.35.35Z"
        fill="#111"
      />
      <path
        d="M45.78 20.99a57.14 57.14 0 0 0-5.08 5.17 31.74 31.74 0 0 1-5.3 4.86c-.22-.53-1.63-1.51-1.63-1.51s-3.13-2.13-5.19-3.8a31.74 31.74 0 0 1-3.13-2.98l-2-.11a22.57 22.57 0 0 0 11.98 8.76c.86-.13 3.27-1.85 5.08-3.25a57.36 57.36 0 0 0 5.98-5.86c.5-.59.89-1.26 1.14-1.98-1.14.37-1.85.7-1.85.7Z"
        fill="#F06351"
      />
      <path
        d="m65.07 3.47-8.44 9.37-1.22-1.98 8.13-10.86 1.53 3.47Zm-2.57 13.65 5.53-4.08-.77-3.7-5.4 4.77.65 3.01Zm-2.72 31.85 6.12 3.16 3-2.33-6.67-2.72-2.45 1.9Zm-57.83-43.05 3.06-3.33 9.27 8.93-1.22 2.26-11.11-7.86Zm5.41 10.23-4.69-3.1-2.4 3.83 5.15 2.38 1.94-3.11Zm6.52 35.98-4.54 3.32 2.8 3.55 4-3.99-2.26-2.88Z"
        fill="#FDC305"
      />
      <path
        d="M25.87 27.77s-3.8-1.42-5.2-1.81a3.77 3.77 0 0 0-3.99.62 5.03 5.03 0 0 0-1.72 3.82c.2.46.37.95.47 1.44.05.48-1.2.43-2 .43-.79 0-.9-1.43-.28-3.1a22.1 22.1 0 0 1 1.82-3.72c-5.44 2.82-14.97 9.33-14.97 9.33a44.6 44.6 0 0 1 8.17.24c5.24.52 4.99 4.63 4.99 4.63 1.84-.5 3.72-.88 5.62-1.1 2.11-.14 2.26 2.1 2.26 2.1l.53 3.83c.8-.87 1.69-1.65 2.64-2.34a6.07 6.07 0 0 1 4.37-1.3l-2.7-13.07Z"
        fill="#F06351"
      />
      <path
        d="M85.42 38.22a7.92 7.92 0 0 1-1.4-5.06v-7.32c-.13-1.8.36-3.6 1.38-5.1.93-1.17 2.52-1.75 4.76-1.74 2.25 0 3.77.52 4.56 1.53a6.43 6.43 0 0 1 1.33 4.38v1.71h-4.14v-1.86c0-.49-.05-.98-.13-1.46a1.62 1.62 0 0 0-.47-.93 1.58 1.58 0 0 0-1.16-.36c-.3-.04-.6 0-.87.14a1.4 1.4 0 0 0-.63.6 5.2 5.2 0 0 0-.34 2.14v9.28a4.5 4.5 0 0 0 .39 2.14 1.52 1.52 0 0 0 1.45.71 1.33 1.33 0 0 0 1.4-.72c.25-.68.35-1.4.32-2.13v-1.95h4.14v1.69a6.93 6.93 0 0 1-1.23 4.5c-.88 1.06-2.4 1.59-4.57 1.59-2.16 0-3.85-.59-4.79-1.78Zm16.28-18.94h4.76l4 20.48h-3.94l-.71-4.53h-3.33l-.8 4.5h-4.01l4.04-20.45Zm3.66 13.38-1.26-8.23-1.25 8.23h2.51Zm8.18-10.3h-3.25v-3.08h10.74v3.08h-3.2v17.37h-4.3l.01-17.37Z"
        fill="#111"
      />
      <path
        d="M129.46 19.28h8.15v2.13h-5.21v6.75h4.23v2.02h-4.23v7.5h5.26v2.05h-8.2v-20.45Zm10.57 0h2l6.01 13.58v-13.58h2.45v20.48h-1.88l-6.01-13.96v13.93h-2.48l-.1-20.45Zm13.69 0h8.14v2.13h-5.21v6.75h4.27v2.02h-4.23v7.5h5.23v2.05h-8.2v-20.45Zm10.55 0h4.23a7.16 7.16 0 0 1 4.68 1.28c1 .85 1.5 2.23 1.5 4.15 0 2.6-.87 4.2-2.6 4.77l3 10.25h-2.84l-2.76-9.6h-2.27v9.6h-2.94v-20.45Zm4.01 8.78c.97.09 1.93-.18 2.7-.74a3.46 3.46 0 0 0 .83-2.65 5.55 5.55 0 0 0-.3-1.95 1.83 1.83 0 0 0-1-1.05 4.89 4.89 0 0 0-2.05-.34h-1.29v6.77l1.11-.04Zm10.34 10.16a8.82 8.82 0 0 1-1.27-5.22v-6.82c-.03-1.32.14-2.64.5-3.9.3-.96.9-1.79 1.75-2.35a6.05 6.05 0 0 1 3.36-.82 5.4 5.4 0 0 1 4.19 1.44 6.69 6.69 0 0 1 1.28 4.51v.76h-2.75v-.63c.02-.76-.05-1.51-.18-2.26-.1-.48-.37-.9-.76-1.2a3.07 3.07 0 0 0-1.73-.4c-.65-.05-1.3.14-1.81.55-.42.38-.69.89-.77 1.44-.13.8-.19 1.61-.17 2.43v7.6a7.15 7.15 0 0 0 .59 3.36 2.83 2.83 0 0 0 2.26 1.03 2.9 2.9 0 0 0 2.22-1.11c.48-1.13.69-2.35.6-3.56v-1.44h-2.66v-2.02h5.31v10.12h-1.81l-.3-2.35a3.6 3.6 0 0 1-1.4 1.93 3.7 3.7 0 0 1-2.33.67 4.79 4.79 0 0 1-4.12-1.76Zm16.06-5.71-4.54-13.23h2.72l3.22 9.87 3.16-9.87h2.76l-4.5 13.23v7.22h-2.81l-.01-7.22Z"
        fill="#444"
      />
    </g>
    <defs>
      <clipPath id="a">
        <path fill="#fff" d="M0 0h202v59h-202z" />
      </clipPath>
    </defs>
  </symbol>
  <!-- logo-desktop end -->
  <!-- logo-title start -->
  <symbol id="logo-title" viewBox="0 0 101 18" fill="currentColor">
    <g clip-path="url(#clip0_37030_445)">
      <path
        d="M1.26449 16.5385C0.36955 15.2762 -0.0747041 13.7627 1.02073e-05 12.2308V5.84615C-0.108365 4.29774 0.308071 2.75746 1.18546 1.46154C2.05478 0.461538 3.39829 0 5.37403 0C7.34978 0 8.61425 0.461538 9.40455 1.30769C10.2626 2.37941 10.6846 3.72136 10.59 5.07692V6.61539H6.71754V4.84615C6.74881 4.32289 6.66808 3.799 6.48045 3.30769C6.38016 3.10938 6.2212 2.9448 6.02403 2.83513C5.82686 2.72547 5.60049 2.67572 5.37403 2.69231C4.82082 2.69231 4.42568 2.84615 4.26762 3.23077C4.08883 3.77733 4.00862 4.34988 4.03053 4.92308V13.1538C3.98879 13.71 4.0978 14.267 4.34665 14.7692C4.5047 15.1538 4.89985 15.3077 5.45306 15.3077C6.00627 15.3077 6.32239 15.1538 6.48045 14.7692C6.66013 14.2494 6.74049 13.7019 6.71754 13.1538V11.3077H10.59V12.8462C10.6704 14.2238 10.2508 15.5852 9.40455 16.6923C8.61425 17.6154 7.27075 18.0769 5.37403 18.0769C3.47732 18 2.05478 17.5385 1.26449 16.5385Z"
      />
      <path
        d="M15.2527 0.23077H19.7574L23.0767 17.7692H19.4413L18.8091 14.0769H16.2011L15.5689 17.7692H11.8545L15.2527 0.23077ZM18.493 11.7692L17.5446 4.92308L16.5962 11.7692H18.493Z"
      />
      <path
        d="M25.8427 3.15385H23.1557V0.23077H32.5602V3.07692H29.8732V17.7692H25.8427V3.15385Z"
      />
      <path
        d="M39.7519 0.23077H46.7066V2.07692H42.2019V7.84615H45.8372V9.61539H42.2019V16.0769H46.7066V17.8462H39.6729V0.23077H39.7519Z"
      />
      <path
        d="M48.7613 0.23077H50.5L55.6369 11.8462V0.23077H57.6917V17.7692H56.1111L50.8951 5.76923V17.7692H48.7613V0.23077Z"
      />
      <path
        d="M60.0626 0.23077H67.0172V2.07692H62.5125V7.84615H66.1479V9.61539H62.5125V16.0769H67.0172V17.8462H60.0626V0.23077Z"
      />
      <path
        d="M69.072 0.23077H72.7074C74.1375 0.134618 75.5587 0.514353 76.7379 1.30769C77.6072 2 78.0024 3.23077 78.0024 4.84616C78.0024 7.07692 77.2911 8.46154 75.7895 8.92308L78.3185 17.6923H75.8686L73.4977 9.46154H71.5219V17.6923H68.993V0.23077H69.072ZM72.5493 7.76923C73.364 7.83458 74.1761 7.61652 74.8412 7.15385C75.3154 6.76923 75.5524 6 75.5524 4.84616C75.5743 4.27296 75.4941 3.7004 75.3154 3.15385C75.1375 2.76166 74.832 2.4373 74.446 2.23077C73.9017 1.98934 73.3042 1.8836 72.7074 1.92308H71.601V7.69231H72.5493V7.76923Z"
      />
      <path
        d="M81.1635 16.4615C80.342 15.1166 79.9564 13.5617 80.0571 12V6.15384C80.0376 5.0391 80.1705 3.92679 80.4522 2.84615C80.7167 2.03863 81.2437 1.33668 81.9538 0.84615C82.8362 0.337746 83.8542 0.0967275 84.8779 0.153842C86.5375 0.153842 87.723 0.538458 88.4342 1.38461C89.2524 2.50191 89.6438 3.86237 89.5407 5.23077V5.84615H87.1698V5.30769C87.1733 4.66346 87.1205 4.0201 87.0117 3.38461C86.9451 2.98303 86.7177 2.62348 86.3795 2.38461C85.9353 2.10082 85.4081 1.96578 84.8779 2C84.3112 1.96465 83.7504 2.12843 83.2973 2.46154C83.1114 2.61401 82.9595 2.80181 82.8507 3.01344C82.742 3.22507 82.6788 3.45608 82.6651 3.6923C82.5609 4.37999 82.5081 5.07411 82.507 5.76923V12.3077C82.4488 13.3038 82.6104 14.3006 82.9812 15.2308C83.2973 15.8462 83.9295 16.0769 84.8779 16.0769C85.2523 16.1223 85.6322 16.0589 85.9697 15.8947C86.3072 15.7304 86.5873 15.4727 86.7746 15.1538C87.1922 14.1811 87.3812 13.1299 87.3278 12.0769V10.8462H85.036V9.07692H89.6197V17.7692H88.0391L87.802 15.7692C87.5948 16.4395 87.1634 17.0231 86.5763 17.4273C85.9892 17.8315 85.2801 18.0331 84.5618 18C83.9088 18.0374 83.2564 17.9164 82.6633 17.6479C82.0702 17.3794 81.5548 16.9717 81.1635 16.4615Z"
      />
      <path
        d="M94.6776 11.6154L90.8052 0.307692H93.1761L95.9421 8.76923L98.6291 0.307692H101L97.1276 11.6154V17.7692H94.7567V11.6154H94.6776Z"
      />
    </g>
    <defs>
      <clipPath id="clip0_37030_445">
        <rect width="101" height="18" />
      </clipPath>
    </defs>
  </symbol>
  <!-- logo-title end -->
</svg>
